HIERARCHY
ROOT Hips
{
	OFFSET 0.00000 0.00000 0.00000
	CHANNELS 6 Xposition Yposition Zposition Zrotation Yrotation Xrotation 
	JOINT LHipJoint
	{
		OFFSET 0 0 0
		CHANNELS 3 Zrotation Yrotation Xrotation
		JOINT LeftHip
		{
			OFFSET 1.58895 -1.83665 0.71753
			CHANNELS 3 Zrotation Yrotation Xrotation
			JOINT LeftKnee
			{
				OFFSET 2.50528 -6.88321 0.00000
				CHANNELS 3 Zrotation Yrotation Xrotation
				JOINT LeftAnkle
				{
					OFFSET 2.63244 -7.23257 0.00000
					CHANNELS 3 Zrotation Yrotation Xrotation
					JOINT LeftToe
					{
						OFFSET 0.23691 -0.65090 1.72750
						CHANNELS 3 Zrotation Yrotation Xrotation
						End Site
						{
							OFFSET 0.00000 -0.00000 0.92561
						}
					}
				}
			}
		}
	}
	JOINT RHipJoint
	{
		OFFSET 0 0 0
		CHANNELS 3 Zrotation Yrotation Xrotation
		JOINT RightHip
		{
			OFFSET -1.51435 -1.83665 0.71753
			CHANNELS 3 Zrotation Yrotation Xrotation
			JOINT RightKnee
			{
				OFFSET -2.54551 -6.99375 0.00000
				CHANNELS 3 Zrotation Yrotation Xrotation
				JOINT RightAnkle
				{
					OFFSET -2.66027 -7.30903 0.00000
					CHANNELS 3 Zrotation Yrotation Xrotation
					JOINT RightToe
					{
						OFFSET -0.22981 -0.63138 2.03959
						CHANNELS 3 Zrotation Yrotation Xrotation
						End Site
						{
							OFFSET -0.00000 -0.00000 1.07060
						}
					}
				}
			}
		}
	}
	JOINT lowerback
	{
		OFFSET 0 0 0
		CHANNELS 3 Zrotation Yrotation Xrotation
		JOINT Chest
		{
			OFFSET -0.02651 1.86275 -0.11152
			CHANNELS 3 Zrotation Yrotation Xrotation
			JOINT Chest2
			{
				OFFSET 0.01019 1.86224 0.04087
				CHANNELS 3 Zrotation Yrotation Xrotation
				JOINT lowerneck
				{
					OFFSET 0 0 0
					CHANNELS 3 Zrotation Yrotation Xrotation
					JOINT Neck
					{
						OFFSET -0.01926 1.80512 0.08867
						CHANNELS 3 Zrotation Yrotation Xrotation
						JOINT Head
						{
							OFFSET 0.05516 1.76451 -0.38475
							CHANNELS 3 Zrotation Yrotation Xrotation
							End Site
							{
								OFFSET 0.01592 1.82587 -0.14001
							}
						}
					}
				}
				JOINT LeftCollar
				{
					OFFSET 0 0 0
					CHANNELS 3 Zrotation Yrotation Xrotation
					JOINT LeftShoulder
					{
						OFFSET 3.47116 1.51376 0.14491
CHANNELS 3 Zrotation Xrotation Yrotation
						JOINT LeftElbow
						{
OFFSET 0 -4.780950 0.000000
CHANNELS 3 Zrotation Xrotation Yrotation
							JOINT LeftWrist
							{
OFFSET 0 -3.586150 -0.000000
CHANNELS 3 Zrotation Xrotation Yrotation
								JOINT lhand
								{
									OFFSET 0 0 0
CHANNELS 3 Zrotation Xrotation Yrotation
									JOINT LFingers
									{
OFFSET 0 -0.659810 0.000000
CHANNELS 3 Zrotation Xrotation Yrotation
										End Site
										{
OFFSET 0 -0.531960 0.000000
										}
									}
								}
								JOINT LThumb
								{
OFFSET 0 0.000000 0.000000
CHANNELS 3 Zrotation Xrotation Yrotation
									End Site
									{
OFFSET 0 -0.540080 0.540080
									}
								}
							}
						}
					}
				}
				JOINT RightCollar
				{
					OFFSET 0 0 0
					CHANNELS 3 Zrotation Yrotation Xrotation
					JOINT RightShoulder
					{
						OFFSET -3.31725 1.61216 0.35156
CHANNELS 3 Zrotation Xrotation Yrotation
						JOINT RightElbow
						{
OFFSET 0 -4.489130 0.000000
CHANNELS 3 Zrotation Xrotation Yrotation
							JOINT RightWrist
							{
OFFSET 0 -3.705100 0.000000
CHANNELS 3 Zrotation Xrotation Yrotation
								JOINT rhand
								{
									OFFSET 0 0 0
CHANNELS 3 Zrotation Xrotation Yrotation
									JOINT RFingers
									{
OFFSET 0 -0.449140 0.000000
CHANNELS 3 Zrotation Xrotation Yrotation
										End Site
										{
OFFSET 0 -0.362110 0.000000
										}
									}
								}
								JOINT RThumb
								{
OFFSET 0 0.000000 0.000000
CHANNELS 3 Zrotation Xrotation Yrotation
									End Site
									{
OFFSET 0 -0.367630 0.367630
									}
								}
							}
						}
					}
				}
			}
		}
	}
}
MOTION
Frames: 9
Frame Time: .0083333
-0.5745 18.6945 5.5415 -1.6054 -4.6158 1.9809 0.0000 0.0000 0.0000 -13.5393 -8.6140 -0.9346 1.2181 7.0007 19.7174 1.7859 7.6147 -28.9561 7.7944 -15.9659 -51.8185 0.0000 0.0000 0.0000 0.0000 0.0000 0.0000 0.0000 0.0000 0.0000 -0.0000 -0.0000 0.0000 -0.0000 -0.0000 0.0000 -0.7350 0.2617 2.0389 1.2439 0.3622 -2.4483 1.6741 0.2183 -3.6745 -3.0231 -0.9647 -14.8234 2.8733 -1.3411 24.1052 1.3500 -0.5638 10.1702 0.0000 0.0000 0.0000 0.35 11.3579 -33.462 19.9557 -30.5889 5.5088 12.4096 -8.3143 23.4155 0.0 0.0 0.0 -7.1250 0.0 0.0 -10.3747 6.3911 -9.3131 0.0000 0.0000 0.0000 -1.8596 16.6293 28.5889 -25.0472 -36.2522 -8.3178 -10.2349 22.9081 38.4167 0.0 0.0 0.0 7.1250 0.0 -0.0 32.4354 66.087 -17.2842
-0.5751 18.6942 5.5454 -1.6101 -4.6462 1.9435 0.0000 0.0000 0.0000 -13.5535 -8.6311 -0.8445 1.2166 6.9965 19.7049 1.7927 7.6342 -29.0131 7.7874 -15.9606 -51.7931 0.0000 0.0000 0.0000 0.0000 0.0000 0.0000 0.0000 0.0000 0.0000 -0.0000 -0.0000 0.0000 -0.0000 -0.0000 0.0000 -0.7469 0.2754 2.0463 1.2515 0.3802 -2.4391 1.6877 0.2276 -3.6700 -3.3083 -0.9738 -14.9952 3.1298 -1.3454 24.3058 1.4907 -0.5607 10.2797 -0.0000 -0.0000 0.0000 0.3357 11.3285 -33.4463 19.9319 -30.5602 5.4967 12.4278 -8.3202 23.434 0.0 0.0 0.0 -7.1250 0.0 0.0 -10.3642 6.3705 -9.3076 -0.0000 -0.0000 0.0000 -1.8775 16.6408 28.6118 -25.0470 -36.252 -8.3177 -10.3248 22.9303 38.3782 0.0 0.0 0.0 7.1250 0.0 -0.0 32.2873 66.0818 -17.1942
-0.5756 18.6948 5.5473 -1.5993 -4.6497 1.9301 0.0000 0.0000 0.0000 -13.5794 -8.6628 -0.7942 1.2140 6.9894 19.6840 1.7858 7.7072 -29.0130 7.7933 -15.9651 -51.8149 0.0000 0.0000 0.0000 0.0000 0.0000 0.0000 0.0000 0.0000 0.0000 -0.0000 -0.0000 0.0000 -0.0000 -0.0000 0.0000 -0.7801 0.2756 2.0516 1.2547 0.3793 -2.4452 1.7097 0.2283 -3.6796 -3.3362 -0.9718 -14.9852 3.1593 -1.3440 24.3301 1.5064 -0.5593 10.2869 0.0000 -0.0000 0.0000 0.3262 11.3249 -33.4324 19.9374 -30.5669 5.4995 12.3792 -8.2958 23.3992 0.0 0.0 0.0 -7.1250 0.0 0.0 -10.3929 6.4108 -9.326 0.0000 -0.0000 0.0000 -1.8892 16.656 28.6504 -25.0403 -36.2451 -8.3137 -10.44 22.9703 38.3666 0.0 0.0 0.0 7.1250 0.0 -0.0 32.1492 66.1056 -17.1313
-0.5756 18.6959 5.5485 -1.6140 -4.6351 1.9592 0.0000 0.0000 0.0000 -13.5622 -8.6806 -0.8175 1.2124 6.9850 19.6709 1.7811 7.7314 -28.9971 7.7871 -15.9604 -51.7923 0.0000 0.0000 0.0000 0.0000 0.0000 0.0000 0.0000 0.0000 0.0000 -0.0000 -0.0000 0.0000 -0.0000 -0.0000 0.0000 -0.7748 0.2623 2.0250 1.2605 0.3622 -2.4618 1.7137 0.2197 -3.6811 -3.3082 -0.9542 -14.9824 3.1033 -1.3120 24.3490 1.4862 -0.5487 10.2915 0.0000 -0.0000 0.0000 0.3191 11.3394 -33.4187 19.9683 -30.6041 5.5152 12.3541 -8.3037 23.3495 0.0 0.0 0.0 -7.1250 0.0 0.0 -10.4067 6.4633 -9.3281 0.0000 -0.0000 0.0000 -1.8979 16.6409 28.7199 -24.9856 -36.1893 -8.2814 -10.9291 23.0095 38.1066 0.0 0.0 0.0 7.1250 0.0 -0.0 31.2743 66.0332 -16.5732
-0.5755 18.6962 5.5505 -1.6380 -4.6145 1.9798 0.0000 0.0000 0.0000 -13.5341 -8.7005 -0.8205 1.2112 6.9815 19.6605 1.7891 7.6873 -29.0226 7.7617 -15.9412 -51.6999 0.0000 0.0000 0.0000 0.0000 0.0000 0.0000 0.0000 0.0000 0.0000 -0.0000 -0.0000 0.0000 -0.0000 -0.0000 0.0000 -0.7563 0.2493 1.9956 1.2707 0.3458 -2.4671 1.7148 0.2112 -3.6693 -3.2631 -0.9353 -15.0172 2.9917 -1.2673 24.3947 1.4452 -0.5370 10.3122 -0.0000 -0.0000 0.0000 0.302 11.3299 -33.3977 19.9733 -30.6102 5.5178 12.3696 -8.3187 23.3649 0.0 0.0 0.0 -7.1250 0.0 0.0 -10.3975 6.4461 -9.3231 -0.0000 -0.0000 0.0000 -1.8901 16.6393 28.7344 -24.9746 -36.178 -8.2749 -11.1619 22.9846 37.9804 0.0 0.0 0.0 7.1250 0.0 -0.0 30.8556 65.9957 -16.3063
-0.5760 18.6960 5.5526 -1.6304 -4.5887 1.9744 0.0000 0.0000 0.0000 -13.5374 -8.7012 -0.8112 1.2106 6.9798 19.6557 1.7862 7.6866 -29.0030 7.7762 -15.9522 -51.7526 0.0000 0.0000 0.0000 0.0000 0.0000 0.0000 0.0000 0.0000 0.0000 -0.0000 -0.0000 0.0000 -0.0000 -0.0000 0.0000 -0.7831 0.2390 1.9798 1.2840 0.3315 -2.4617 1.7444 0.2049 -3.6545 -3.3193 -0.9482 -15.0340 2.9856 -1.2690 24.4210 1.4526 -0.5437 10.3255 -0.0000 -0.0000 0.0000 0.2685 11.3107 -33.3979 19.9671 -30.6026 5.5146 12.3243 -8.3288 23.3481 0.0 0.0 0.0 -7.1250 0.0 0.0 -10.4250 6.4682 -9.344 -0.0000 -0.0000 0.0000 -1.8799 16.653 28.6747 -25.0112 -36.2154 -8.2965 -10.9446 22.9638 38.0601 0.0 0.0 0.0 7.1250 0.0 -0.0 31.1949 65.9992 -16.5034
-0.5765 18.6961 5.5541 -1.6195 -4.5761 1.9695 0.0000 0.0000 0.0000 -13.5365 -8.6519 -0.8240 1.2098 6.9777 19.6494 1.7769 7.6770 -28.9351 7.8002 -15.9703 -51.8398 0.0000 0.0000 0.0000 0.0000 0.0000 0.0000 0.0000 0.0000 0.0000 -0.0000 -0.0000 0.0000 -0.0000 -0.0000 0.0000 -0.8145 0.2331 1.9795 1.2943 0.3229 -2.4686 1.7730 0.2017 -3.6615 -3.3978 -0.9714 -15.0015 3.0321 -1.2944 24.4134 1.4790 -0.5574 10.3182 0.0000 0.0000 0.0000 0.2407 11.3087 -33.4072 19.9571 -30.5906 5.5095 12.2788 -8.3468 23.3334 0.0 0.0 0.0 -7.1250 0.0 0.0 -10.4527 6.4882 -9.3657 0.0000 0.0000 0.0000 -1.8749 16.6516 28.6557 -24.9550 -36.158 -8.2634 -11.5443 23.1264 37.7924 0.0 0.0 0.0 7.1250 0.0 -0.0 30.1956 65.9493 -15.8973
-0.5767 18.6962 5.5549 -1.6215 -4.5594 1.9618 0.0000 0.0000 0.0000 -13.5328 -8.6449 -0.8131 1.2088 6.9749 19.6412 1.7766 7.6658 -28.9266 7.8037 -15.9730 -51.8527 0.0000 0.0000 0.0000 0.0000 0.0000 0.0000 0.0000 0.0000 0.0000 -0.0000 -0.0000 0.0000 -0.0000 -0.0000 0.0000 -0.8324 0.2313 2.0002 1.3001 0.3200 -2.4801 1.7892 0.2011 -3.6852 -3.3881 -0.9724 -14.9752 3.0144 -1.2942 24.3986 1.4709 -0.5586 10.3076 -0.0000 0.0000 0.0000 0.2355 11.2917 -33.4244 19.9354 -30.5645 5.4985 12.3163 -8.3579 23.321 0.0 0.0 0.0 -7.1250 0.0 0.0 -10.4290 6.4961 -9.3421 -0.0000 0.0000 0.0000 -1.8324 16.6558 28.5736 -24.9360 -36.1385 -8.2521 -11.6832 23.2745 37.674 0.0 0.0 0.0 7.1250 0.0 -0.0 29.8906 65.8899 -15.6836
-0.5767 18.6963 5.5559 -1.6085 -4.5275 1.9437 0.0000 0.0000 0.0000 -13.5564 -8.6738 -0.7846 1.2075 6.9714 19.6307 1.7730 7.7235 -28.9390 7.8282 -15.9914 -51.9415 0.0000 0.0000 0.0000 0.0000 0.0000 0.0000 0.0000 0.0000 0.0000 -0.0000 -0.0000 0.0000 -0.0000 -0.0000 0.0000 -0.8573 0.2356 2.0310 1.2941 0.3246 -2.4819 1.7967 0.2041 -3.7048 -3.3626 -0.9701 -14.9855 2.9973 -1.2922 24.3768 1.4606 -0.5572 10.3013 -0.0000 0.0000 0.0000 0.2542 11.2671 -33.4835 19.9371 -30.5665 5.4993 12.3371 -8.3746 23.269 0.0 0.0 0.0 -7.1250 0.0 0.0 -10.4141 6.5454 -9.3182 -0.0000 0.0000 0.0000 -1.7841 16.6407 28.4348 -25.0029 -36.207 -8.2916 -10.7024 23.2489 37.9799 0.0 0.0 0.0 7.1250 0.0 -0.0 31.3456 65.8632 -16.4933
